<svg width="28" height="21" viewBox="0 0 28 21" fill="none" xmlns="http://www.w3.org/2000/svg">
<path d="M27.3586 0.58933C27.1734 0.402591 26.953 0.254372 26.7102 0.153224C26.4675 0.0520757 26.2071 0 25.944 0C25.681 0 25.4206 0.0520757 25.1778 0.153224C24.9351 0.254372 24.7147 0.402591 24.5295 0.58933L9.68658 15.4522L3.45057 9.19622C3.25827 9.01046 3.03126 8.86439 2.78251 8.76636C2.53375 8.66833 2.26813 8.62025 2.00079 8.62488C1.73346 8.62951 1.46966 8.68674 1.22444 8.79332C0.979229 8.89989 0.757408 9.05373 0.571646 9.24603C0.385883 9.43833 0.239817 9.66534 0.141786 9.91409C0.0437555 10.1628 -0.00432047 10.4285 0.000304665 10.6958C0.0049298 10.9631 0.0621653 11.2269 0.168742 11.4722C0.275319 11.7174 0.429151 11.9392 0.621454 12.125L8.27202 19.7755C8.45724 19.9623 8.67759 20.1105 8.92038 20.2116C9.16316 20.3128 9.42357 20.3649 9.68658 20.3649C9.9496 20.3649 10.21 20.3128 10.4528 20.2116C10.6956 20.1105 10.9159 19.9623 11.1011 19.7755L27.3586 3.51806C27.5608 3.3315 27.7222 3.10506 27.8326 2.85303C27.943 2.60101 28 2.32884 28 2.0537C28 1.77855 27.943 1.50639 27.8326 1.25436C27.7222 1.00233 27.5608 0.775896 27.3586 0.58933V0.58933Z" fill="white"/>
</svg>
